<?xml version="1.0" encoding="utf-8"?><svg version="1.1" id="Layer_1" xmlns="http://www.w3.org/2000/svg" xmlns:xlink="http://www.w3.org/1999/xlink" x="0px" y="0px" viewBox="0 0 122.09 122.88" style="enable-background:new 0 0 122.09 122.88" xml:space="preserve"><style type="text/css">.st0{fill-rule:evenodd;clip-rule:evenodd;}</style><g><path class="st0" d="M90.41,83.03l3.6,4.56c2.73-1.53,5.88-2.41,9.23-2.41c5.21,0,9.92,2.11,13.33,5.52 c3.41,3.41,5.52,8.13,5.52,13.33c0,5.21-2.11,9.92-5.52,13.33c-3.41,3.41-8.12,5.52-13.33,5.52c-5.2,0-9.92-2.11-13.33-5.52 c-3.41-3.41-5.52-8.12-5.52-13.33c0-5.2,2.11-9.92,5.52-13.33l0.08-0.08l-3.52-4.46c-3.55,2.24-7.76,3.53-12.27,3.53 c-6.37,0-12.15-2.58-16.32-6.76c-1.08-1.08-2.06-2.27-2.91-3.55L34.85,89.83c1.81,2.9,2.86,6.32,2.86,9.98 c0,5.21-2.11,9.92-5.52,13.33c-3.41,3.41-8.12,5.52-13.33,5.52c-5.21,0-9.92-2.11-13.33-5.52C2.11,109.72,0,105.01,0,99.81 c0-5.2,2.11-9.92,5.52-13.33c3.41-3.41,8.12-5.52,13.33-5.52c4.88,0,9.33,1.86,12.68,4.9l21.11-10.97 c-0.99-2.57-1.53-5.36-1.53-8.28c0-4.35,1.21-8.43,3.3-11.9L33.46,38.57c-0.08-0.06-0.15-0.12-0.22-0.19 c-0.14,0.15-0.28,0.29-0.42,0.44c-3.41,3.41-8.12,5.52-13.33,5.52c-5.21,0-9.92-2.11-13.33-5.52c-3.41-3.41-5.52-8.12-5.52-13.33 c0-5.21,2.11-9.92,5.52-13.33c3.41-3.41,8.12-5.52,13.33-5.52c5.21,0,9.92,2.11,13.33,5.52c3.41,3.41,5.52,8.12,5.52,13.33 c0,3.19-0.79,6.2-2.2,8.84c0.14,0.07,0.27,0.15,0.4,0.25l20.93,16.11c0.13-0.14,0.26-0.27,0.4-0.41c4.18-4.18,9.95-6.76,16.32-6.76 c3.27,0,6.37,0.68,9.19,1.9l6.09-11.47c-0.72-0.54-1.41-1.13-2.05-1.77c-3.41-3.41-5.52-8.12-5.52-13.33 c0-5.21,2.11-9.92,5.52-13.33C90.84,2.11,95.55,0,100.75,0c5.21,0,9.92,2.11,13.33,5.52c3.41,3.41,5.52,8.12,5.52,13.33 c0,5.2-2.11,9.92-5.52,13.33c-3.41,3.41-8.12,5.52-13.33,5.52c-2.42,0-4.74-0.46-6.86-1.29l-6.12,11.52 c0.97,0.71,1.89,1.49,2.74,2.35c4.18,4.18,6.76,9.95,6.76,16.32s-2.58,12.15-6.76,16.32L90.41,83.03L90.41,83.03z M102.9,113.65 c-0.7,0.01-1.27-0.54-1.28-1.24c-0.01-0.7,0.54-1.27,1.23-1.28c1.85-0.04,3.58-0.73,5.01-1.74c1.66-1.17,2.92-2.76,3.52-4.29 c0.26-0.65,0.99-0.96,1.64-0.71c0.65,0.26,0.96,0.99,0.71,1.63c-0.78,1.96-2.35,3.98-4.41,5.43 C107.5,112.73,105.3,113.59,102.9,113.65L102.9,113.65z M113.26,94.01c-2.56-2.56-6.11-4.15-10.02-4.15 c-3.91,0-7.46,1.59-10.02,4.15c-2.56,2.56-4.15,6.11-4.15,10.02c0,3.91,1.59,7.46,4.15,10.02c2.56,2.56,6.11,4.15,10.02,4.15 c3.91,0,7.46-1.59,10.02-4.15c2.56-2.56,4.15-6.11,4.15-10.02C117.41,100.11,115.82,96.57,113.26,94.01L113.26,94.01z M18.14,15.05 c0.68-0.17,1.36,0.24,1.53,0.92c0.17,0.68-0.24,1.36-0.92,1.53c-1.5,0.38-2.9,1.17-4.05,2.16c-1.26,1.08-2.23,2.38-2.74,3.64 c-0.26,0.65-1,0.96-1.64,0.7c-0.65-0.26-0.96-1-0.7-1.64c0.66-1.61,1.87-3.26,3.44-4.6C14.5,16.51,16.25,15.53,18.14,15.05 L18.14,15.05z M29.51,15.47c-2.56-2.56-6.11-4.15-10.02-4.15c-3.91,0-7.46,1.59-10.02,4.15c-2.56,2.56-4.15,6.11-4.15,10.02 c0,3.91,1.59,7.46,4.15,10.02c2.56,2.56,6.11,4.15,10.02,4.15c3.91,0,7.46-1.59,10.02-4.15c2.56-2.56,4.15-6.11,4.15-10.02 C33.66,21.58,32.07,18.04,29.51,15.47L29.51,15.47z M100.51,11.08c-0.7-0.01-1.25-0.59-1.24-1.28c0.01-0.7,0.59-1.25,1.28-1.23 c1.96,0.04,3.78,0.62,5.37,1.53c1.77,1.01,3.26,2.43,4.3,3.95c0.4,0.57,0.25,1.36-0.32,1.75c-0.57,0.4-1.36,0.25-1.75-0.32 c-0.84-1.22-2.04-2.37-3.47-3.18C103.43,11.57,102.01,11.11,100.51,11.08L100.51,11.08z M110.78,8.83 c-2.56-2.56-6.11-4.15-10.02-4.15c-3.91,0-7.46,1.59-10.02,4.15c-2.56,2.56-4.15,6.11-4.15,10.02c0,3.91,1.59,7.46,4.15,10.02 c2.56,2.56,6.11,4.15,10.02,4.15c3.91,0,7.46-1.59,10.02-4.15c2.56-2.56,4.15-6.11,4.15-10.02 C114.93,14.94,113.34,11.4,110.78,8.83L110.78,8.83z M19.72,107.55c0.7,0.01,1.25,0.59,1.23,1.28c-0.01,0.7-0.59,1.25-1.28,1.24 c-1.91-0.04-3.69-0.59-5.24-1.46c-1.74-0.96-3.2-2.31-4.26-3.77c-0.41-0.56-0.28-1.35,0.28-1.76c0.56-0.41,1.35-0.28,1.76,0.28 c0.86,1.18,2.04,2.28,3.44,3.05C16.87,107.09,18.25,107.52,19.72,107.55L19.72,107.55z M28.87,89.79 c-2.56-2.56-6.11-4.15-10.02-4.15s-7.46,1.59-10.02,4.15c-2.56,2.56-4.15,6.11-4.15,10.02c0,3.91,1.59,7.46,4.15,10.02 c2.56,2.56,6.11,4.15,10.02,4.15s7.46-1.59,10.02-4.15c2.56-2.56,4.15-6.11,4.15-10.02C33.02,95.89,31.44,92.35,28.87,89.79 L28.87,89.79z M75.61,56.39c-0.75-0.01-1.34-0.63-1.33-1.38c0.01-0.75,0.63-1.34,1.38-1.33c2.59,0.06,4.95,0.99,6.9,2.35 c2.22,1.56,3.91,3.73,4.74,5.84c0.28,0.69-0.06,1.48-0.76,1.76c-0.69,0.28-1.48-0.06-1.76-0.76c-0.65-1.64-2-3.36-3.79-4.62 C79.46,57.17,77.6,56.43,75.61,56.39L75.61,56.39z"/></g></svg>